# xmcd CD database file
#
# Track frame offsets:
#	150
#	15925
#	35777
#	51580
#	57700
#	69470
#	94007
#	107187
#	139777
#
# Disc length: 2074 seconds
#
# Revision: 2
# Processed by: cddbd v1.4PL0 Copyright (c) Steve Scherf et al.
# Submitted via: CDex 1.40Release
#
DISCID=82081809
DTITLE=The Mark Marshall Band - Songs From the Bottle
DYEAR=2000
DGENRE=Blues
TTITLE0=Long Hard Road
TTITLE1=Man In Misery
TTITLE2=Little Man
TTITLE3=No $
TTITLE4=Something That I Said
TTITLE5=Austin - Texas
TTITLE6=Jelle's Swing Shuffle
TTITLE7=Cocaine and Bad Whiskey
TTITLE8=Sober
EXTD=YEAR: 2000 ID3G: 0
EXTT0=
EXTT1=
EXTT2=
EXTT3=
EXTT4=
EXTT5=
EXTT6=
EXTT7=
EXTT8=
PLAYORDER=
